PathFileType	4	(X/Y/Z)	C:/Users/opensim2020/Desktop/walking_exp_matlab/subject06_walking22_straight_02.trc																																																																																																																																		
DataRate	CameraRate	NumFrames	NumMarkers	Units	OrigDataRate	OrigDataStartFrame	OrigNumFrames																																																																																																																														
100	100	6	44	mm	100	1269	81																																																																																																																														
Frame#	Time	LFHD			RFHD			LBHD			RBHD			C7			T10			CLAV			STRN			RBAK			LSHO			LUPA			LELB			LFRM			LWRA			LWRB			LFIN			RSHO			RUPA			RELB			RFRM			RWRA			RWRB			RFIN			LASI			RASI			LPSI			RPSI			LTHI			LKNE			LTIB			LANK			LHEE			LTOE			RTHI			RKNE			RTIB			RANK			RHEE			RTOE			*39			*40			*41			*42			*43		
		X1	Y1	Z1	X2	Y2	Z2	X3	Y3	Z3	X4	Y4	Z4	X5	Y5	Z5	X6	Y6	Z6	X7	Y7	Z7	X8	Y8	Z8	X9	Y9	Z9	X10	Y10	Z10	X11	Y11	Z11	X12	Y12	Z12	X13	Y13	Z13	X14	Y14	Z14	X15	Y15	Z15	X16	Y16	Z16	X17	Y17	Z17	X18	Y18	Z18	X19	Y19	Z19	X20	Y20	Z20	X21	Y21	Z21	X22	Y22	Z22	X23	Y23	Z23	X24	Y24	Z24	X25	Y25	Z25	X26	Y26	Z26	X27	Y27	Z27	X28	Y28	Z28	X29	Y29	Z29	X30	Y30	Z30	X31	Y31	Z31	X32	Y32	Z32	X33	Y33	Z33	X34	Y34	Z34	X35	Y35	Z35	X36	Y36	Z36	X37	Y37	Z37	X38	Y38	Z38	X39	Y39	Z39	X40	Y40	Z40	X41	Y41	Z41	X42	Y42	Z42	X43	Y43	Z43	X44	Y44	Z44
																																																																																																																																					
11	0.1	-609.06573	1622.44922	915.1286	-609.42572	1617.77026	1047.77881	-742.97467	1569.54321	917.96875	-741.09076	1569.7179	1047.14539	-746.78632	1417.13904	968.62299	-794.01709	1088.24402	973.19513	-640.58173	1335.18506	985.47766	-608.67731	1157.61157	981.56592	-838.34644	1247.32214	1028.26038	-670.49011	1369.06519	817.10974	-643.10046	1169.62256	745.68756	-621.02063	1059.4762	733.29425	-510.21539	962.88068	734.43909	-397.80667	933.78149	799.62518	-427.09561	880.78894	763.19507	-338.97742	864.3913	776.56506	-714.17059	1369.2876	1137.44812	-825.03577	1199.3844	1210.7428	-861.39178	1084.4104	1232.54285	-896.0116	970.48712	1258.59607	-887.64209	815.86292	1254.27295	-947.17084	842.76074	1274.75916	-945.76794	759.01605	1288.71411	-623.94855	913.22937	879.73431	-620.08893	936.6026	1100.30762	-778.8493	952.47369	907.62317	-773.60699	965.41394	1076.54199	-749.80597	605.54407	841.04926	-790.46777	445.53598	867.34412	-991.27716	280.99371	883.95007	-1114.26917	164.06296	928.76746	-1148.96631	188.22049	972.01758	-1049.34937	34.21229	954.22107	-589.65198	629.24426	1164.30713	-533.42664	519.04852	1132.19336	-522.36816	254.42303	1139.45459	-509.98224	68.29171	1096.21277	-546.89288	41.08626	1051.68713	-355.77994	41.0525	1087.44446	-708.98853	1664.24426	972.6806	NaN	NaN	NaN	NaN	NaN	NaN	NaN	NaN	NaN	NaN	NaN	NaN
12	0.11	-593.34521	1624.20789	916.27832	-593.20746	1619.5564	1048.86096	-727.26801	1571.73291	919.59546	-725.04779	1571.92993	1048.82825	-730.56067	1419.05981	970.24738	-777.88434	1090.41846	973.75275	-624.52911	1337.11792	986.57703	-592.08087	1159.81042	982.7038	-821.66864	1249.64819	1030.97632	-654.65424	1371.15808	818.44543	-629.35132	1171.30347	747.20184	-607.81757	1061.08069	735.55286	-498.8266	961.97437	735.34747	-386.50748	931.2298	798.48846	-417.06271	878.31	763.50275	-329.19427	860.22504	775.44794	-696.84027	1371.10938	1138.81775	-805.75488	1200.12537	1213.26648	-840.88013	1084.83508	1234.63562	-874.47656	970.61981	1260.76355	-865.68085	816.1618	1255.8302	-924.78021	842.57776	1277.09961	-922.95966	758.76935	1290.67871	-606.34869	914.87292	882.39783	-603.40369	940.5199	1101.78186	-761.53253	953.4696	906.48187	-756.98138	967.97296	1074.91077	-726.57013	604.02588	841.70349	-762.4234	443.37485	866.71973	-967.1842	287.00552	883.67352	-1095.24402	175.42918	926.97778	-1127.69177	202.6544	970.15942	-1043.04407	39.32285	953.92175	-570.05621	634.86188	1165.10388	-518.01831	521.95062	1133.08521	-512.35034	256.03094	1141.23633	-506.97253	67.96799	1096.48132	-545.42896	42.08083	1052.68225	-353.97528	37.71038	1088.22961	-692.80103	1666.33203	974.19995	NaN	NaN	NaN	NaN	NaN	NaN	NaN	NaN	NaN	NaN	NaN	NaN
13	0.12	-577.2442	1625.81372	917.30487	-576.96851	1621.03821	1049.92847	-711.64868	1573.78357	921.04724	-708.94019	1573.83765	1050.24377	-714.67133	1420.60657	971.69299	-761.53918	1092.57764	974.51251	-608.37579	1339.00061	987.4527	-575.39697	1161.948	983.62195	-804.87695	1252.02673	1033.47021	-639.07294	1373.22375	819.83606	-615.29321	1173.1637	748.91541	-594.9632	1062.93616	737.92944	-488.18845	961.10138	736.21112	-375.51157	928.09076	797.47809	-408.22491	875.44635	763.87836	-320.69647	855.07776	774.06305	-679.57996	1373.16772	1139.94019	-786.04663	1200.98999	1215.56628	-820.02203	1085.37549	1236.66113	-852.50494	970.96405	1262.85645	-842.35034	816.52466	1257.32813	-901.49231	842.41937	1279.66345	-898.87549	758.35132	1292.58105	-588.97864	916.72491	884.62109	-586.98859	944.39532	1103.28992	-744.17889	954.52423	905.67023	-740.84027	970.08759	1073.59033	-703.44781	602.82867	841.8313	-733.5589	441.41827	866.10217	-941.00922	292.52588	882.88361	-1073.49939	186.80038	925.46832	-1103.51489	216.6843	968.26971	-1034.22253	45.55929	953.24182	-553.40167	638.53815	1166.58972	-504.85992	523.28424	1134.94495	-503.10699	255.386	1140.74146	-504.74985	67.80452	1095.86963	-544.3855	42.73617	1052.60559	-352.19156	35.81565	1087.60095	-676.61298	1668.24011	975.59418	NaN	NaN	NaN	NaN	NaN	NaN	NaN	NaN	NaN	NaN	NaN	NaN
14	0.13	-561.63849	1627.57361	918.21423	-560.76599	1622.56873	1050.84949	-695.91473	1575.65625	922.25378	-693.10986	1575.5686	1051.76929	-699.12048	1422.03943	972.97784	-745.32709	1094.6499	975.58875	-592.13068	1340.92468	988.11871	-558.84497	1164.02844	984.18243	-788.23138	1254.2384	1035.56116	-623.94446	1375.22986	821.10944	-601.22815	1175.11597	750.71112	-582.54572	1064.6947	740.19012	-478.10263	959.97211	737.02728	-365.32611	924.32129	796.45337	-400.13986	872.28424	764.08051	-313.26193	849.20349	772.51337	-662.39929	1375.29407	1140.92749	-766.4563	1202.10303	1217.99561	-799.08429	1086.05103	1238.62842	-829.98737	971.30597	1265.05908	-817.97955	816.80286	1258.66162	-876.86768	842.02277	1282.14587	-873.81006	757.83337	1294.40845	-571.58765	918.69208	886.52374	-570.8476	948.27332	1104.54871	-727.29645	955.62042	905.41772	-724.43689	972.16205	1073.13904	-679.80585	601.82501	842.05511	-703.69373	439.78543	865.90051	-912.45294	297.06995	882.46008	-1048.54199	196.70229	923.50146	-1075.59937	229.34521	966.26282	-1022.51923	52.1804	952.5528	-540.7041	638.82483	1167.6123	-492.99985	523.02972	1136.39954	-496.3941	253.55183	1139.79041	-503.23831	67.81754	1095.21875	-543.98419	43.18829	1052.3457	-351.17398	34.78709	1086.67969	-660.55676	1669.98401	976.86169	NaN	NaN	NaN	NaN	NaN	NaN	NaN	NaN	NaN	NaN	NaN	NaN
15	0.14	-545.96454	1629.66406	919.008	-544.77429	1624.47766	1051.6571	-680.13947	1577.64771	923.28058	-677.07654	1577.36047	1052.78711	-683.6413	1423.71521	974.16522	-729.08325	1096.77051	976.79822	-576.03516	1342.96338	988.64551	-542.61517	1166.17139	984.57092	-771.63531	1256.3158	1037.23474	-609.19196	1377.15479	822.03943	-587.22485	1176.93689	752.46283	-570.70093	1066.12036	742.05658	-468.62207	958.46521	737.65607	-355.78824	919.88385	795.38666	-392.88388	868.69244	763.89508	-306.83487	842.74487	770.92328	-645.1499	1377.40173	1141.87463	-745.99365	1202.98157	1219.75232	-778.13495	1086.85254	1240.7782	-807.15417	971.68372	1267.28528	-792.80383	817.26868	1259.86987	-852.07263	841.8056	1284.88281	-847.62354	757.31873	1296.21777	-555.72247	920.59869	887.13202	-554.80273	951.49237	1105.48022	-710.5177	957.00037	906.10968	-708.02985	974.40259	1073.58862	-656.06146	601.4516	842.43365	-673.44781	438.83936	866.01099	-881.71954	300.16266	882.14709	-1021.4201	204.75	921.7854	-1045.49609	239.82846	964.3136	-1006.22858	59.08865	950.68597	-529.45691	637.49646	1167.91504	-482.28644	521.71808	1137.19104	-490.99866	252.21176	1138.25867	-502.45892	67.77051	1094.37695	-543.7616	43.46481	1051.85645	-350.5856	34.05706	1086.77307	-644.7002	1671.90503	977.91943	NaN	NaN	NaN	NaN	NaN	NaN	NaN	NaN	NaN	NaN	NaN	NaN
16	0.15	-530.28253	1632.00403	919.53699	-528.72229	1626.72156	1052.19714	-664.42877	1580.00061	924.1864	-660.60193	1579.49475	1053.24109	-668.02502	1425.87561	975.341	-712.8504	1098.96924	978.07935	-560.13074	1345.29187	988.98291	-526.48248	1168.51514	984.8335	-755.25146	1258.45728	1038.90125	-594.79999	1379.08459	822.60095	-573.62012	1178.47766	753.93915	-559.24945	1067.31067	743.50873	-459.80316	956.72693	738.06848	-347.01346	914.80896	794.15851	-386.55984	864.72418	763.59167	-301.27911	835.90021	769.07556	-627.87274	1379.65942	1142.84729	-726.31604	1204.17676	1221.86646	-757.32556	1087.74182	1242.90894	-784.01569	972.0788	1269.61548	-767.23853	817.93634	1261.17383	-826.23047	841.43018	1287.32617	-820.47931	756.90698	1297.99316	-539.92487	922.83801	887.29089	-538.67181	953.88501	1106.11572	-694.67474	958.71722	907.42029	-691.40479	976.56024	1074.849	-632.03656	601.60846	843.25745	-643.55298	438.90851	866.26404	-850.24921	301.69397	881.12811	-994.47278	212.19096	921.35004	-1017.97705	247.41739	964.15741	-982.20477	65.1824	947.84052	-517.56641	636.07751	1168.39856	-471.526	520.06622	1136.802	-486.59744	251.73978	1136.77344	-501.78256	67.95391	1093.59363	-543.57349	43.76495	1051.43726	-350.29538	33.72591	1086.76733	-628.92932	1674.21118	978.81744	NaN	NaN	NaN	NaN	NaN	NaN	NaN	NaN	NaN	NaN	NaN	NaN
